<svg width="50" height="50" viewBox="0 0 50 50" fill="none" xmlns="http://www.w3.org/2000/svg">
<path d="M4.16666 31.8542V11.8958C4.16666 9.125 5.77082 8.45833 7.72916 10.4167L13.125 15.8125C13.9375 16.625 15.2708 16.625 16.0625 15.8125L23.5208 8.33333C23.7136 8.1402 23.9425 7.98698 24.1945 7.88243C24.4465 7.77789 24.7167 7.72408 24.9896 7.72408C25.2624 7.72408 25.5326 7.77789 25.7846 7.88243C26.0367 7.98698 26.2656 8.1402 26.4583 8.33333L33.9375 15.8125C34.75 16.625 36.0833 16.625 36.875 15.8125L42.2708 10.4167C44.2292 8.45833 45.8333 9.125 45.8333 11.8958V31.875C45.8333 38.125 41.6667 42.2917 35.4167 42.2917H14.5833C8.83332 42.2708 4.16666 37.6042 4.16666 31.8542V31.8542Z" stroke="black" stroke-width="1.5" stroke-linecap="round" stroke-linejoin="round"/>
</svg>
