<svg width="50" height="50" viewBox="0 0 50 50" fill="none" xmlns="http://www.w3.org/2000/svg">
<path d="M25.3125 34.375V38.75" stroke="black" stroke-width="1.5" stroke-linecap="round" stroke-linejoin="round"/>
<path d="M14.8958 45.8333H35.7292V43.75C35.7292 41.4583 33.8542 39.5833 31.5625 39.5833H19.0625C16.7708 39.5833 14.8958 41.4583 14.8958 43.75V45.8333V45.8333Z" stroke="black" stroke-width="1.5" stroke-miterlimit="10"/>
<path d="M12.8125 45.8333H37.8125M25 33.3333C16.9375 33.3333 10.4167 26.8125 10.4167 18.75V12.5C10.4167 7.89583 14.1458 4.16667 18.75 4.16667H31.25C35.8542 4.16667 39.5833 7.89583 39.5833 12.5V18.75C39.5833 26.8125 33.0625 33.3333 25 33.3333Z" stroke="black" stroke-width="1.5" stroke-linecap="round" stroke-linejoin="round"/>
<path d="M11.3958 24.2708C9.83333 23.7708 8.45833 22.8542 7.375 21.7708C5.5 19.6875 4.25 17.1875 4.25 14.2708C4.25 11.3542 6.54167 9.0625 9.45833 9.0625H10.8125C10.3958 10.0208 10.1875 11.0833 10.1875 12.1875V18.4375C10.1875 20.5208 10.625 22.4792 11.3958 24.2708V24.2708ZM38.6042 24.2708C40.1667 23.7708 41.5417 22.8542 42.625 21.7708C44.5 19.6875 45.75 17.1875 45.75 14.2708C45.75 11.3542 43.4583 9.0625 40.5417 9.0625H39.1875C39.6042 10.0208 39.8125 11.0833 39.8125 12.1875V18.4375C39.8125 20.5208 39.375 22.4792 38.6042 24.2708V24.2708Z" stroke="black" stroke-width="1.5" stroke-linecap="round" stroke-linejoin="round"/>
</svg>
