<svg width="152" height="168" viewBox="0 0 152 168" fill="none" xmlns="http://www.w3.org/2000/svg">
<path fill-rule="evenodd" clip-rule="evenodd" d="M104.817 20.7794C107.199 18.0705 108.812 14.7508 108.542 11.0309C107.766 0.313018 92.364 2.67083 89.3681 8.08032C86.3721 13.4898 86.7281 27.2114 90.6001 28.1782C92.1443 28.5638 95.4338 27.6193 98.7817 25.6645L96.6803 40.0661H109.088L104.817 20.7794Z" fill="#C79F88"/>
<path fill-rule="evenodd" clip-rule="evenodd" d="M105.77 23.192C107.328 16.4804 111.764 11.9054 111.087 8.90555C110.635 6.90568 109.431 5.66203 107.475 5.17461C106.463 1.20975 103.2 -0.476662 97.6856 0.115379C89.414 1.00344 84.3655 4.33103 86.5457 11.6532C88.5498 11.6532 90.9692 10.9511 94.3147 12.154C95.3762 12.5357 96.1355 13.7193 96.5924 15.7049H98.1042C99.5715 13.3486 101.018 12.4827 102.445 13.1072C103.871 13.7318 104.195 15.2489 103.417 17.6584L104.162 23.192H105.77Z" fill="#191847"/>
<path fill-rule="evenodd" clip-rule="evenodd" d="M143.728 102.669H84.2721C79.7035 102.669 76 106.257 76 110.683V156.759C76 161.184 79.7035 164.772 84.2721 164.772H143.728C148.296 164.772 152 161.184 152 156.759V110.683C152 106.257 148.296 102.669 143.728 102.669ZM135.456 116.693C136.598 116.693 137.524 117.59 137.524 118.696V148.746C137.524 149.852 136.598 150.749 135.456 150.749H92.5442C91.4021 150.749 90.4762 149.852 90.4762 148.746V118.696C90.4762 117.59 91.4021 116.693 92.5442 116.693H135.456Z" fill="#9805DD"/>
<path fill-rule="evenodd" clip-rule="evenodd" d="M24.7342 162.268C34.9274 150.21 41.8244 141.271 45.4251 135.45C51.5905 125.484 56.6365 116.617 58.2289 113.229C62.0262 105.151 49.4869 101.369 46.649 105.136C42.3537 110.839 33.1805 128.784 19.1293 158.971L24.7342 162.268Z" fill="#B28B67"/>
<path fill-rule="evenodd" clip-rule="evenodd" d="M45.622 158.762L64.5922 112.504C68.6495 104.072 49.0558 98.5286 46.074 102.453C39.3043 111.362 23.2142 146.509 21.1973 149.163L45.622 158.762Z" fill="#2F3676"/>
<path fill-rule="evenodd" clip-rule="evenodd" d="M96.1462 149.485C92.4509 144.264 79.0097 126.696 71.6887 119.428C69.5849 117.339 67.5322 115.334 65.5907 113.466C59.8198 107.913 48.3279 117.246 54.0881 122.304C68.4334 134.9 89.3641 151.904 91.1128 153.42C93.5638 155.545 98.4686 152.767 96.1462 149.485Z" fill="#C79F88"/>
<path fill-rule="evenodd" clip-rule="evenodd" d="M95.282 147.126C96.5549 148.142 97.383 148.971 97.7663 149.614C98.2325 150.396 98.7782 151.613 99.4035 153.264L74.1501 167.387C72.2413 165.653 71.9439 164.306 73.2579 163.348C74.5719 162.39 75.6563 161.581 76.511 160.923L85.2274 149.29C85.3952 149.066 85.7185 149.016 85.9495 149.179C85.9535 149.181 85.9574 149.184 85.9613 149.187L87.7724 150.538C89.4339 150.398 90.6738 150.099 91.4921 149.641C92.157 149.269 92.9202 148.495 93.7816 147.32L93.7816 147.32C94.1122 146.869 94.7577 146.763 95.2234 147.083C95.2434 147.097 95.263 147.111 95.282 147.126Z" fill="#E4E4E4"/>
<path fill-rule="evenodd" clip-rule="evenodd" d="M29.1188 160.466C29.6972 161.962 29.9864 163.081 29.9864 163.823C29.9864 164.726 29.8311 166.044 29.5205 167.777H0.36035C-0.397419 165.35 0.0400085 164.04 1.67263 163.847C3.30526 163.653 4.6615 163.478 5.74138 163.322L19.2947 157.469C19.5555 157.357 19.8612 157.47 19.9774 157.723C19.9794 157.727 19.9814 157.732 19.9832 157.736L20.8544 159.783C22.3658 160.466 23.594 160.808 24.5389 160.808C25.3066 160.808 26.3669 160.507 27.7196 159.907L27.7196 159.907C28.2387 159.676 28.8525 159.897 29.0905 160.4C29.1007 160.421 29.1102 160.444 29.1188 160.466Z" fill="#E4E4E4"/>
<path fill-rule="evenodd" clip-rule="evenodd" d="M71.4183 114.815C87.1853 112.326 97.7463 110.625 103.101 109.71C118.365 107.103 122.816 99.1463 120.184 81.7861H92.0612C88.3396 82.8272 72.7892 89.2661 45.41 101.103C40.484 103.472 41.4014 110.456 42.3018 112.757C42.3385 112.851 50.6429 126.636 67.2149 154.111L90.2207 139.914L71.375 116.487C70.8774 115.516 70.8918 114.959 71.4183 114.815Z" fill="#5C63AB"/>
<path fill-rule="evenodd" clip-rule="evenodd" d="M69.392 75.2299L52.9004 86.9611C48.4275 88.1303 44.6906 89.5849 41.6896 91.325C40.9807 91.9508 40.1239 93.218 43.0639 92.999C46.0038 92.78 49.1064 92.6777 49.512 93.6491C49.9177 94.6205 48.1386 95.7821 48.9586 97.0928C49.5053 97.9666 52.0879 95.7756 56.7066 90.52L73.0377 83.9598L69.392 75.2299ZM132.712 75.6348L121.907 75.676C128.578 96.5372 132.18 107.606 132.712 108.883C133.908 111.755 131.376 116.129 130.294 118.479C133.82 120.008 133.444 114.347 137.892 116.352C141.952 118.182 145.04 121.497 149.731 118.693C150.308 118.348 150.939 117.051 149.413 116.036C145.609 113.51 140.127 109.087 139.386 107.632C138.376 105.647 136.151 94.9812 132.712 75.6348Z" fill="#C79F88"/>
<path fill-rule="evenodd" clip-rule="evenodd" d="M102.008 31.7184L97.5374 30.9756C80.9501 44.8562 74.1371 71.5226 53.8052 85.6488L58.6989 91.5249C93.9711 87.2944 102.714 54.7679 102.008 31.7184Z" fill="#9805DD"/>
<path fill-rule="evenodd" clip-rule="evenodd" d="M121.497 86.1422H81.9397C80.1322 86.1422 80.4728 83.6139 80.734 82.3381C83.7497 67.6135 95.5215 51.7412 95.5215 30.7812L106.932 29.048C116.369 43.7515 119.633 61.8544 121.497 86.1422Z" fill="#DDE3E9"/>
<path fill-rule="evenodd" clip-rule="evenodd" d="M121.179 43.5008C122.836 43.0394 124.148 41.9631 125.116 40.2721C129.286 32.9825 127.78 28.9691 123.323 27.6498C118.866 26.3306 114.892 29.048 107.791 29.048C107.405 29.048 107.051 29.0714 106.729 29.1183L103.158 29.3158C92.9092 62.9616 90.0828 85.4095 94.6783 96.6596H125.813C127.657 100.826 129.423 104.332 131.108 107.177H139.592C140.39 82.1692 134.253 60.9438 121.179 43.5008Z" fill="#7C04B4" fill-opacity="0.99"/>
<path fill-rule="evenodd" clip-rule="evenodd" d="M119.033 79.3799C118.054 87.3162 116.462 93.0761 114.258 96.6596H125.813C123.661 91.7991 121.401 86.0392 119.033 79.3799Z" fill="black" fill-opacity="0.1"/>
</svg>
