<svg width="50" height="50" viewBox="0 0 50 50" fill="none" xmlns="http://www.w3.org/2000/svg">
<path d="M39.5833 18.75C39.5833 21.7708 38.6875 24.5417 37.1458 26.8542C36.0161 28.5391 34.5467 29.9691 32.8317 31.0527C31.1168 32.1362 29.1942 32.8491 27.1875 33.1458C26.4792 33.2708 25.75 33.3333 25 33.3333C24.25 33.3333 23.5208 33.2708 22.8125 33.1458C20.8058 32.8491 18.8832 32.1362 17.1683 31.0527C15.4533 29.9691 13.9838 28.5391 12.8542 26.8542C11.2548 24.4548 10.4062 21.6335 10.4167 18.75C10.4167 10.6875 16.9375 4.16667 25 4.16667C33.0625 4.16667 39.5833 10.6875 39.5833 18.75Z" stroke="black" stroke-width="1.5" stroke-linecap="round" stroke-linejoin="round"/>
<path d="M44.2708 38.4792L40.8333 39.2917C40.0625 39.4792 39.4583 40.0625 39.2917 40.8333L38.5625 43.8958C38.473 44.2718 38.2808 44.6154 38.0073 44.8884C37.7337 45.1613 37.3897 45.3528 37.0135 45.4414C36.6374 45.53 36.2441 45.5123 35.8774 45.3902C35.5108 45.2681 35.1854 45.0464 34.9375 44.75L25 33.3333L15.0625 44.7708C14.8146 45.0673 14.4892 45.2889 14.1225 45.411C13.7559 45.5331 13.3626 45.5509 12.9864 45.4622C12.6103 45.3736 12.2662 45.1821 11.9927 44.9092C11.7192 44.6362 11.5269 44.2926 11.4375 43.9167L10.7083 40.8542C10.6197 40.4795 10.4286 40.1368 10.1563 39.8645C9.88401 39.5923 9.54136 39.4011 9.16665 39.3125L5.72915 38.5C5.369 38.4137 5.03826 38.2332 4.77081 37.977C4.50335 37.7208 4.30879 37.3981 4.20705 37.042C4.1053 36.6859 4.10003 36.3092 4.19177 35.9504C4.28351 35.5915 4.46897 35.2636 4.72915 35L12.8542 26.875C13.9838 28.5599 15.4533 29.99 17.1683 31.0735C18.8832 32.157 20.8057 32.87 22.8125 33.1667C23.5208 33.2917 24.25 33.3542 25 33.3542C25.75 33.3542 26.4792 33.2917 27.1875 33.1667C31.3333 32.5625 34.8958 30.2083 37.1458 26.875L45.2708 35C46.4167 36.125 45.8542 38.1042 44.2708 38.4792V38.4792ZM26.2083 12.4583L27.4375 14.9167C27.6042 15.25 28.0417 15.5833 28.4375 15.6458L30.6667 16.0208C32.0833 16.25 32.4167 17.2917 31.3958 18.3125L29.6667 20.0417C29.375 20.3333 29.2083 20.8958 29.3125 21.3125L29.8125 23.4583C30.2083 25.1458 29.3125 25.8125 27.8125 24.9167L25.7292 23.6875C25.5176 23.5746 25.2815 23.5156 25.0417 23.5156C24.8018 23.5156 24.5657 23.5746 24.3542 23.6875L22.2708 24.9167C20.7708 25.7917 19.875 25.1458 20.2708 23.4583L20.7708 21.3125C20.8542 20.9167 20.7083 20.3333 20.4167 20.0417L18.6875 18.3125C17.6667 17.2917 18 16.2708 19.4167 16.0208L21.6458 15.6458C22.0208 15.5833 22.4583 15.25 22.625 14.9167L23.8542 12.4583C24.4583 11.125 25.5417 11.125 26.2083 12.4583V12.4583Z" stroke="black" stroke-width="1.5" stroke-linecap="round" stroke-linejoin="round"/>
</svg>
