<svg width="50" height="50" viewBox="0 0 50 50" fill="none" xmlns="http://www.w3.org/2000/svg">
<path d="M45.6875 14.0833L38.6667 42.2708C38.423 43.2902 37.8416 44.1971 37.0169 44.8439C36.1923 45.4907 35.173 45.8395 34.125 45.8333H6.75001C3.60417 45.8333 1.35417 42.75 2.29167 39.7292L11.0625 11.5625C11.3556 10.6073 11.9462 9.77072 12.7482 9.17482C13.5502 8.57893 14.5217 8.2549 15.5208 8.25H41.1458C43.125 8.25 44.7708 9.45833 45.4583 11.125C45.8542 12.0208 45.9375 13.0417 45.6875 14.0833Z" stroke="black" stroke-width="1.5" stroke-miterlimit="10"/>
<path d="M33.3333 45.8333H43.2917C45.9792 45.8333 48.0833 43.5625 47.8958 40.875L45.8333 12.5M20.1667 13.2917L22.3333 4.29166M34.125 13.3125L36.0833 4.27083M16.0417 25H32.7083M13.9583 33.3333H30.625" stroke="black" stroke-width="1.5" stroke-miterlimit="10" stroke-linecap="round" stroke-linejoin="round"/>
</svg>
