<svg width="50" height="50" viewBox="0 0 50 50" fill="none" xmlns="http://www.w3.org/2000/svg">
<path d="M37.7917 45.0417C35.9583 45.5833 33.7917 45.8333 31.25 45.8333H18.75C16.2083 45.8333 14.0417 45.5833 12.2083 45.0417C12.6667 39.625 18.2292 35.3542 25 35.3542C31.7708 35.3542 37.3333 39.625 37.7917 45.0417V45.0417Z" stroke="black" stroke-width="1.5" stroke-linecap="round" stroke-linejoin="round"/>
<path d="M31.25 4.16667H18.75C8.33332 4.16667 4.16666 8.33334 4.16666 18.75V31.25C4.16666 39.125 6.54166 43.4375 12.2083 45.0417C12.6667 39.625 18.2292 35.3542 25 35.3542C31.7708 35.3542 37.3333 39.625 37.7917 45.0417C43.4583 43.4375 45.8333 39.125 45.8333 31.25V18.75C45.8333 8.33334 41.6667 4.16667 31.25 4.16667ZM25 29.5208C20.875 29.5208 17.5417 26.1667 17.5417 22.0417C17.5417 17.9167 20.875 14.5833 25 14.5833C29.125 14.5833 32.4583 17.9167 32.4583 22.0417C32.4583 26.1667 29.125 29.5208 25 29.5208Z" stroke="black" stroke-width="1.5" stroke-linecap="round" stroke-linejoin="round"/>
<path d="M32.4583 22.0417C32.4583 26.1667 29.125 29.5208 25 29.5208C20.875 29.5208 17.5417 26.1667 17.5417 22.0417C17.5417 17.9167 20.875 14.5833 25 14.5833C29.125 14.5833 32.4583 17.9167 32.4583 22.0417Z" stroke="black" stroke-width="1.5" stroke-linecap="round" stroke-linejoin="round"/>
</svg>
